#!OML:ASF E:/inclinewalkrobotboard/Project1/Captureday1/Session1/subject1.ASF
:FULLY-SPECIFIED
:DEGREES
13
root 0 0 0 45.55901166554351 -48.8900459936618 -18.819389718766487
lowerback -6.357564927204637 3.7188088425995156 -0.5077523565423762
upperback -13.613178861324593 4.413861678690919 -0.25041582045950506
thorax -11.301408930743342 2.1588291321541635 0.5180125569286405
lowerneck -11.494746369710295 7.197277711563931 4.698606060886531
upperneck 17.676461695961056 7.7433655217806034 7.519023537152515
head 7.458129392799279 4.503235266219298 2.243138933104061
rclavicle 5.24302283671592E-16 -1.3066296911008236E-15
rhumerus 7.577535732885169 -22.029219722636473 -53.89119884907726
rradius 28.013877841521957
rwrist 21.37652542836907
rhand -2.2578206792012967 9.68004738876715
rfingers 7.125019999999986
rthumb 23.335405258856234 -17.82752998441981
lclavicle -2.2080601527035497E-17 -1.1052682404837672E-15
lhumerus -10.076270931698337 6.754418592472361 46.32212096176758
lradius 32.79157491548308
lwrist -12.003227546052576
lhand -3.2017079687301084 24.23792355794012
lfingers 7.125019999999976
lthumb 22.336187397021654 51.76702993918159
rfemur 75.39078835031962 -100.04168340002106 -74.04620705531835
rtibia 40.034287447263914
rfoot -19.519645488734863 -20.057492480604058
rtoes 23.330738568524428
lfemur -49.807208141661974 9.77926898832994 -28.920723680110505
ltibia 45.71795889166458
lfoot -22.709501194734102 17.234969561491546
ltoes 12.066577373826313
14
root 0 0 0 45.66134789661038 -48.99292360191613 -18.872633535360066
lowerback -6.377177325853202 3.7338832094098913 -0.49526946985627696
upperback -13.624795216524122 4.433577294610749 -0.2587075884103802
thorax -11.305912215331265 2.166962907442887 0.5055727713365645
lowerneck -11.502050470514916 7.214601819435348 4.71423166661714
upperneck 17.672322680421196 7.76409241541289 7.524997233374229
head 7.4575981875324775 4.514404422980439 2.2447586632249568
rclavicle 5.162795493279842E-16 -1.30635149634696E-15
rhumerus 7.982506407763408 -22.060469029743505 -53.64425415690524
rradius 27.917503248049798
rwrist 21.625189976851168
rhand -1.983525119986962 9.4346491407256
rfingers 7.1250199999999895
rthumb 23.604298588677725 -18.028346528196813
lclavicle -1.7190422711866246E-16 -1.1204386077071438E-15
lhumerus -10.066909821984801 7.0213088733995495 45.87757194320789
lradius 32.51022020239255
lwrist -12.388631482115592
lhand -3.364404941655824 24.326890964195893
lfingers 7.125019999999976
lthumb 22.197096695663486 51.89360927967799
rfemur 75.37113994091435 -100.00372288588136 -73.98857460242796
rtibia 40.03825800469532
rfoot -19.461696654315546 -20.055813862543914
rtoes 23.30000170390319
lfemur -49.498062143425564 9.693024226436698 -28.774362301108496
ltibia 45.60602044686628
lfoot -22.791916297756927 17.100356697811293
ltoes 12.036834945114762
15
root 0 0 0 45.68076583241821 -49.00141081895899 -18.88509731553779
lowerback -6.381844012656567 3.738853299717102 -0.48889937341565454
upperback -13.62002202158181 4.440595977588757 -0.2606112179148634
thorax -11.299691236525746 2.1696199000322984 0.5006282361172709
lowerneck -11.508466726567093 7.212720180584162 4.7162724701567775
upperneck 17.681223813140974 7.7618525366805695 7.520258657106801
head 7.461912870182808 4.513242965887001 2.2431119559606802
rclavicle 5.190200214765553E-16 -1.31304798876236E-15
rhumerus 8.185036514741224 -22.084133556221797 -53.44339050245219
rradius 27.871124839340638
rwrist 21.748733609143603
rhand -1.8071057816148155 9.282996496501632
rfingers 7.125019999999992
rthumb 23.779149200737848 -18.15180933544342
lclavicle -2.3249554350899604E-16 -1.1264451304777473E-15
lhumerus -10.078859758020238 7.1299222662070605 45.71453251654301
lradius 32.38922303476153
lwrist -12.543055201573242
lhand -3.445520215631321 24.363001731765902
lfingers 7.125019999999975
lthumb 22.12633764426813 51.94751241079225
rfemur 75.06346587259554 -99.64637629024458 -73.61986971679036
rtibia 40.04188076364532
rfoot -19.40324735575075 -20.015901442307833
rtoes 23.240424270237245
lfemur -49.25365344361035 9.618530394789303 -28.682462094520332
ltibia 45.52419311521562
lfoot -22.807452464854116 16.987847928500027
ltoes 11.98433861612345
16
root 0 0 0 45.68711627715006 -48.978209407170624 -18.888095683909672
lowerback -6.389539175836635 3.7398360112551816 -0.4848527698086037
upperback -13.615317478501904 4.443124551669214 -0.2586055508706053
thorax -11.291387076877278 2.1704947486091886 0.5007471027185946
lowerneck -11.510492733770853 7.204115771117195 4.713123482823819
upperneck 17.69673601463286 7.751646654211736 7.513600736617294
head 7.468105047174161 4.507805751480087 2.24075906188879
rclavicle 5.258146498979472E-16 -1.3248775450283152E-15
rhumerus 8.373111920169663 -22.109462680550642 -53.20616330739215
rradius 27.83045556645032
rwrist 21.855628525314522
rhand -1.6159113777108445 9.122782637010227
rfingers 7.125019999999995
rthumb 23.968528189495238 -18.282241808479334
lclavicle -2.756870929419924E-16 -1.1316184318332235E-15
lhumerus -10.08612545262649 7.204110458343222 45.601335919843876
lradius 32.30744531156351
lwrist -12.648338735737923
lhand -3.499849898981907 24.387369569084285
lfingers 7.125019999999975
lthumb 22.078827583146307 51.983742290232236
rfemur 74.67728320010852 -99.21119097165544 -73.17594510199947
rtibia 40.04693187192521
rfoot -19.35016059921694 -19.96786453297114
rtoes 23.182704056478855
lfemur -49.027379067797824 9.55029801930096 -28.595389131972
ltibia 45.44794630690174
lfoot -22.826681773686058 16.88520179362704
ltoes 11.939066953159692
17
root 0 0 0 45.681253263342214 -48.93611254831852 -18.884373181466643
lowerback -6.396375051655877 3.738555169493292 -0.48210794259549505
upperback -13.609331517817399 4.442966428276829 -0.25474635289553804
thorax -11.281779855268594 2.1702651354327314 0.5032919947765258
lowerneck -11.510952533770801 7.191719836638825 4.707040846289031
upperneck 17.71482777125521 7.737026272045355 7.505539383593483
head 7.475010139244839 4.499984902028956 2.2379579140587156
rclavicle 5.344749252751727E-16 -1.3401658885923124E-15
rhumerus 8.548866351651455 -22.134150919372424 -52.94920045705605
rradius 27.791473077903397
rwrist 21.952337823259924
rhand -1.4155344095263702 8.9569878852329
rfingers 7.1250199999999975
rthumb 24.16761875587227 -18.416987505363387
lclavicle -2.986877987975233E-16 -1.134702305460421E-15
lhumerus -10.096362480334667 7.239655620702447 45.55331288408798
lradius 32.26514787898832
lwrist -12.69720365880928
lhand -3.531928394124087 24.399160158949364
lfingers 7.125019999999975
lthumb 22.050078849293197 52.002114457844726
rfemur 74.14406014023635 -98.61684082811817 -72.57569519542301
rtibia 40.053545950427804
rfoot -19.293784388877604 -19.901775957756563
rtoes 23.11472184448733
lfemur -48.80180020877906 9.481827257407506 -28.511965857929983
ltibia 45.37329533098179
lfoot -22.83905478835114 16.782480755402613
ltoes 11.890478533260733
18
root 0 0 0 45.669074980586316 -48.87797052614442 -18.876437606021977
lowerback -6.404499913570835 3.7354494550846336 -0.4801927934893421
upperback -13.603161359778062 4.440811363829436 -0.24895777463028157
thorax -11.270990981938645 2.1692163871037025 0.5081867847603139
lowerneck -11.509511037227771 7.175849457494694 4.698387280446809
upperneck 17.736246382477272 7.718365957653559 7.496359287903205
head 7.482846111994451 4.489976221767108 2.2347641294358054
rclavicle 5.465604741994189E-16 -1.3595368611127374E-15
rhumerus 8.711743403147699 -22.16066911548616 -52.66175056169325
rradius 27.75624004045164
rwrist 22.03743295726587
rhand -1.2027078902692736 8.78364997424321
rfingers 7.12502
rthumb 24.379494068954486 -18.557746000426686
lclavicle -3.0167248282558388E-16 -1.1364171770367647E-15
lhumerus -10.10518675324339 7.239491547446451 45.56205590490488
lradius 32.26175354139227
lwrist -12.694924987165647
lhand -3.5395609363358513 24.398857448266565
lfingers 7.125019999999974
lthumb 22.042562404623013 52.00293173677137
rfemur 73.53288568362586 -97.93872853176104 -71.89396530120779
rtibia 40.06086284050192
rfoot -19.236600390369887 -19.826075329345407
rtoes 23.041361770425954
lfemur -48.587384179598374 9.417008039571975 -28.4319054819663
ltibia 45.302077148502605
lfoot -22.851445749076113 16.68490896039292
ltoes 11.845043503079436
19
root 0 0 0 45.668630436342006 -48.77290172141562 -18.86783678832596
lowerback -6.431719792468579 3.728791742215442 -0.4774756021364922
upperback -13.600487060095514 4.436449621395619 -0.2358376848291015
thorax -11.25343175086401 2.1672978344969995 0.520733915198061
lowerneck -11.50053774631389 7.146891126537982 4.68197798643954
upperneck 17.77908206255859 7.684414494771836 7.482309937036186
head 7.497540688322898 4.4717604005798695 2.2296544699600127
rclavicle 5.650573173838393E-16 -1.3928308248414802E-15
rhumerus 9.03193052522458 -22.203287309454808 -52.17060012603628
rradius 27.69026262634751
rwrist 22.197755934559318
rhand -0.8227416235158813 8.472312920965201
rfingers 7.1250200000000055
rthumb 24.756575368086942 -18.811228634118116
lclavicle -2.9276246662080594E-16 -1.1443422846609278E-15
lhumerus -10.07167798046642 7.222931571678773 45.559839774939725
lradius 32.29603915254954
lwrist -12.673501297810304
lhand -3.4975533645786907 24.389321488764335
lfingers 7.125019999999975
lthumb 22.083405784907825 51.985559710419906
rfemur 72.77079304951724 -97.10041625520343 -71.05209672179093
rtibia 40.07164120064143
rfoot -19.16906955211042 -19.733840856141924
rtoes 22.958574224918188
lfemur -48.3678687383864 9.356729675212865 -28.327333601142563
ltibia 45.2228793063315
lfoot -22.906860409210896 16.589505827586848
ltoes 11.824249023611927
20
root 0 0 0 45.63534255389437 -48.674604604852135 -18.84913404710239
lowerback -6.439600157470755 3.722644310654462 -0.47589183108136784
upperback -13.588661485329826 4.431150786991168 -0.2267249130808482
thorax -11.236444118078692 2.1648024652780498 0.5287055358991775
lowerneck -11.4986028298247 7.121462798769858 4.667541233284072
upperneck 17.81096621621189 7.654420746658518 7.467552934369195
head 7.509175073552142 4.455654627125778 2.2246420182936792
rclavicle 5.85396214730568E-16 -1.4203936575292075E-15
rhumerus 9.14105482501517 -22.233565177486867 -51.832404748934806
rradius 27.669161725488213
rwrist 22.245259817477745
rhand -0.6021847055024221 8.299129552046498
rfingers 7.125020000000009
rthumb 24.977701464667476 -18.951235249115612
lclavicle -2.489231796667221E-16 -1.1427124125511022E-15
lhumerus -10.084689775289144 7.140985173459427 45.70804273736688
lradius 32.378568635523365
lwrist -12.55283020944362
lhand -3.456579270699505 24.36128347404875
lfingers 7.125019999999975
lthumb 22.117617045099884 51.947346424052675
rfemur 71.96330150368367 -96.20295502089292 -70.15492725428358
rtibia 40.0798650907653
rfoot -19.102001083361703 -19.632044420720533
rtoes 22.862454203535066
lfemur -48.15260041368745 9.290375095211317 -28.251211181473227
ltibia 45.152181155564044
lfoot -22.907495018300292 16.489358174180367
ltoes 11.77203983591131
